<svg xmlns="http://www.w3.org/2000/svg" xmlns:xlink="http://www.w3.org/1999/xlink" width="1080" zoomAndPan="magnify" viewBox="0 0 810 809.999993" height="1080" preserveAspectRatio="xMidYMid meet" version="1.0"><defs><clipPath id="db2269278e"><path d="M 223.289062 140.011719 L 578.789062 140.011719 L 578.789062 490.261719 L 223.289062 490.261719 Z M 223.289062 140.011719 " clip-rule="nonzero"/></clipPath><clipPath id="f6893d2d50"><path d="M 278.445312 177 L 531.195312 177 L 531.195312 498.042969 L 278.445312 498.042969 Z M 278.445312 177 " clip-rule="nonzero"/></clipPath><clipPath id="4dd99d31b1"><path d="M 168.804688 81 L 641.304688 81 L 641.304688 711 L 168.804688 711 Z M 168.804688 81 " clip-rule="nonzero"/></clipPath></defs><g clip-path="url(#db2269278e)"><path fill="#f8fbfc" d="M 229.089844 295.117188 C 229.125 295.117188 229.183594 295.222656 229.269531 295.386719 C 229.664062 296.164062 229.117188 303.632812 228.664062 303.605469 C 228.4375 303.582031 228.484375 302.964844 228.828125 301.0625 C 229.15625 299.625 229.257812 298.175781 229.125 296.707031 C 229.039062 295.539062 229.015625 295.105469 229.097656 295.113281 M 232.375 319.242188 C 232.773438 319.28125 232.734375 321.839844 232.34375 322.558594 C 232.320312 322.601562 232.292969 322.621094 232.269531 322.613281 C 232.144531 322.613281 232.03125 322.042969 232.023438 321.148438 C 231.996094 320.082031 232.148438 319.246094 232.363281 319.242188 M 232.109375 326.261719 C 232.179688 325.988281 232.253906 325.859375 232.320312 325.867188 C 232.390625 325.871094 232.488281 326.082031 232.558594 326.46875 C 232.734375 327.753906 232.675781 328.558594 232.488281 328.535156 C 232.417969 328.535156 232.324219 328.410156 232.226562 328.15625 C 231.953125 327.539062 231.914062 326.910156 232.109375 326.261719 M 243.421875 375.988281 C 243.582031 375.988281 244.234375 377.117188 244.902344 378.460938 C 245.570312 379.804688 246.601562 381.46875 247.183594 381.988281 C 247.640625 382.527344 247.835938 382.757812 247.71875 382.742188 C 247.679688 382.734375 247.640625 382.722656 247.605469 382.707031 C 247.558594 382.671875 247.507812 382.648438 247.449219 382.636719 C 247.253906 382.617188 247.246094 382.972656 247.410156 383.433594 C 247.574219 383.894531 247.558594 384.136719 247.386719 384.117188 C 247.273438 384.089844 247.175781 384.035156 247.09375 383.957031 C 246.636719 383.636719 246.308594 383.003906 246.054688 382.082031 C 245.695312 380.945312 245.21875 379.859375 244.613281 378.832031 C 243.214844 376.324219 243.125 376.09375 243.414062 375.992188 M 244.074219 379.558594 L 244.117188 379.558594 C 244.242188 379.558594 244.390625 379.867188 244.488281 380.296875 C 244.71875 381.109375 245.085938 381.859375 245.585938 382.542969 C 246.042969 383.257812 246.28125 383.625 246.210938 383.617188 C 245.929688 383.390625 245.679688 383.136719 245.464844 382.847656 C 244.273438 381.546875 243.636719 379.734375 244.09375 379.558594 M 248.371094 376.222656 C 248.042969 373.867188 247.390625 371.175781 247.195312 370.394531 C 246.945312 369.695312 246.808594 368.972656 246.777344 368.230469 C 246.898438 367.824219 246.714844 367.285156 246 365.949219 C 245.550781 365.175781 245.222656 364.359375 245.007812 363.492188 C 245.007812 363.335938 245.007812 363.261719 245.0625 363.269531 C 245.117188 363.273438 245.351562 363.585938 245.625 364.140625 C 245.898438 364.691406 246 364.890625 246.082031 364.898438 C 246.164062 364.90625 246.042969 364.28125 245.734375 362.921875 C 245.589844 362.347656 245.496094 361.765625 245.460938 361.171875 C 245.585938 361.46875 245.683594 361.769531 245.746094 362.085938 C 246.660156 365.140625 248.253906 372.660156 249.320312 377.96875 C 249.566406 379.703125 250.019531 381.378906 250.683594 383 C 251.6875 385.191406 252.875 387.28125 254.242188 389.265625 C 262.460938 401.785156 265.34375 404.71875 267.363281 408.0625 C 268.332031 409.476562 268.773438 410.144531 268.734375 410.140625 C 268.433594 409.804688 268.152344 409.449219 267.898438 409.078125 C 265.039062 405.242188 260.046875 398.550781 259.679688 398.515625 C 259.4375 399.011719 259.898438 400.238281 260.257812 400.273438 C 260.292969 400.285156 260.328125 400.285156 260.359375 400.273438 C 260.394531 400.261719 260.429688 400.261719 260.464844 400.273438 C 260.671875 400.296875 260.988281 400.589844 261.273438 401.089844 C 261.554688 401.59375 261.597656 402.109375 261.273438 402.167969 C 261.234375 402.175781 261.195312 402.175781 261.160156 402.167969 C 260.535156 402.105469 259.695312 400.597656 258.644531 397.8125 C 258.382812 397.121094 258.03125 396.480469 257.585938 395.890625 C 257.375 395.628906 257.304688 395.507812 257.347656 395.511719 C 257.457031 395.566406 257.550781 395.644531 257.628906 395.734375 C 257.695312 395.800781 257.773438 395.847656 257.863281 395.871094 C 257.992188 395.871094 257.9375 395.644531 257.734375 395.285156 C 257.414062 394.722656 257.097656 394.28125 256.96875 394.265625 L 256.9375 394.265625 C 256.816406 394.265625 255.871094 392.828125 254.808594 391.070312 C 253.746094 389.3125 252.371094 387.234375 251.9375 386.410156 C 250.019531 383.269531 248.835938 379.871094 248.386719 376.21875 M 261.246094 404.613281 C 261.382812 404.578125 261.519531 404.570312 261.660156 404.582031 C 262.394531 404.660156 263.105469 405.371094 262.574219 405.691406 C 262.253906 405.894531 262.355469 406.101562 263.113281 406.730469 C 263.75 407.183594 264.15625 407.789062 264.328125 408.554688 C 264.371094 408.78125 264.328125 408.894531 264.207031 408.878906 C 264 408.855469 263.539062 408.488281 262.800781 407.742188 C 260.566406 405.433594 260.246094 404.792969 261.222656 404.601562 M 268.605469 417.082031 C 268.679688 417.082031 268.148438 416.066406 267.15625 414.230469 C 266.757812 413.566406 266.394531 412.878906 266.070312 412.175781 C 266.121094 412.175781 266.632812 412.929688 267.660156 414.457031 C 269.851562 417.585938 271 419.425781 270.582031 419.378906 C 270.140625 419.167969 269.761719 418.878906 269.4375 418.515625 C 267.523438 416.726562 266.652344 415.320312 266.628906 414.476562 C 266.628906 414.363281 266.644531 414.308594 266.683594 414.3125 C 266.800781 414.3125 267.089844 414.730469 267.5625 415.535156 C 267.863281 416.085938 268.210938 416.605469 268.605469 417.097656 M 271.800781 418.050781 C 270.5 416.859375 269.0625 415.480469 268.738281 414.988281 C 268.667969 414.878906 268.652344 414.832031 268.679688 414.835938 C 269.347656 415.355469 269.988281 415.910156 270.601562 416.492188 C 271.679688 417.449219 272.707031 418.457031 273.679688 419.515625 C 273.734375 419.585938 273.75 419.617188 273.722656 419.617188 C 273.039062 419.148438 272.398438 418.625 271.800781 418.050781 M 275.382812 418.328125 C 275.425781 418.328125 275.863281 418.890625 276.667969 419.921875 C 277.765625 421.226562 279.910156 424.03125 281.3125 426.148438 C 283.078125 428.554688 284.054688 429.949219 283.972656 429.9375 C 283.511719 429.46875 283.085938 428.96875 282.699219 428.441406 C 282.167969 427.769531 281.859375 427.441406 281.738281 427.425781 C 281.621094 427.414062 281.671875 427.53125 281.738281 427.765625 C 281.808594 427.996094 281.738281 428.09375 281.617188 428.082031 C 281.445312 428.027344 281.304688 427.925781 281.199219 427.785156 C 280.742188 427.289062 280.539062 426.839844 280.640625 426.746094 C 280.933594 426.476562 279.445312 423.980469 276.988281 420.707031 C 275.867188 419.078125 275.363281 418.324219 275.40625 418.328125 M 290.980469 437.960938 C 291 437.964844 291.023438 437.972656 291.042969 437.988281 C 291.734375 438.78125 292.375 439.609375 292.972656 440.476562 C 293.707031 441.488281 294.078125 442.109375 293.949219 442.09375 C 293.890625 442.070312 293.835938 442.035156 293.792969 441.984375 C 293.050781 441.238281 292.386719 440.429688 291.796875 439.5625 C 291.230469 438.683594 290.824219 437.945312 290.980469 437.960938 M 303.449219 449.507812 C 303.765625 449.542969 305.144531 450.320312 306.601562 451.292969 C 307.007812 451.558594 307.398438 451.847656 307.773438 452.15625 C 307.542969 452.039062 307.324219 451.902344 307.113281 451.753906 C 306.574219 451.386719 305.996094 451.09375 305.378906 450.882812 C 305.339844 450.882812 305.324219 450.882812 305.3125 450.882812 C 305.289062 450.894531 305.261719 450.894531 305.234375 450.882812 C 304.835938 450.753906 304.480469 450.554688 304.164062 450.28125 C 303.441406 449.6875 303.25 449.457031 303.449219 449.476562 M 313.558594 455.867188 C 313.738281 455.867188 314.902344 456.527344 316.894531 457.773438 C 318.265625 458.652344 320.359375 460.027344 321.34375 460.847656 C 321.820312 461.203125 322.273438 461.578125 322.710938 461.980469 C 322.671875 461.980469 322.222656 461.660156 321.34375 461.066406 C 320.300781 460.332031 317.949219 458.894531 316.132812 457.675781 C 314.1875 456.449219 313.394531 455.851562 313.554688 455.851562 M 327.679688 467.546875 C 327.710938 467.488281 327.785156 467.464844 327.894531 467.476562 C 328.226562 467.554688 328.53125 467.691406 328.804688 467.894531 C 329.289062 468.230469 329.71875 468.652344 329.667969 468.773438 C 329.667969 468.800781 329.605469 468.8125 329.535156 468.800781 C 329.179688 468.730469 328.847656 468.601562 328.53125 468.421875 C 327.90625 468.097656 327.570312 467.738281 327.667969 467.546875 M 346.105469 473.9375 L 346.3125 473.964844 L 346.445312 473.964844 C 347.039062 474.023438 347.175781 473.851562 346.8125 473.609375 C 346.6875 473.515625 346.660156 473.476562 346.714844 473.480469 C 347.160156 473.632812 347.589844 473.820312 348.003906 474.039062 C 349.050781 474.527344 350.453125 475.058594 351.105469 475.292969 C 351.871094 475.554688 351.835938 475.644531 351.003906 475.585938 C 349.769531 475.402344 348.570312 475.097656 347.398438 474.671875 C 345.710938 474.015625 345.410156 473.851562 346.105469 473.921875 M 354.550781 478.867188 C 354.550781 478.839844 354.644531 478.839844 354.800781 478.867188 C 355.308594 478.921875 356.53125 479.1875 358.019531 479.515625 C 359.359375 479.832031 360.59375 480.074219 361.15625 480.132812 C 361.355469 480.132812 361.472656 480.132812 361.480469 480.132812 C 361.484375 480.132812 361.625 480.042969 361.832031 480.058594 C 362.941406 480.289062 364.035156 480.582031 365.113281 480.941406 C 367.328125 481.597656 369.5 482.382812 371.621094 483.296875 C 374.027344 484.300781 375.074219 484.746094 374.363281 484.664062 C 374.277344 484.65625 374.195312 484.644531 374.109375 484.628906 C 373.199219 484.5 371.0625 483.714844 369.445312 482.921875 C 367.769531 482.140625 366.027344 481.546875 364.21875 481.152344 C 363.589844 480.980469 362.953125 480.855469 362.304688 480.777344 C 361.675781 480.707031 361.246094 480.777344 361.125 480.953125 C 361.082031 481.097656 360.992188 481.148438 360.847656 481.113281 C 360.675781 481.089844 360.523438 481.015625 360.394531 480.894531 C 360.105469 480.617188 358.894531 480.1875 357.195312 479.792969 C 355.585938 479.457031 354.5 479.007812 354.542969 478.882812 M 381.171875 485.941406 C 381.519531 485.976562 382.191406 486.078125 383.222656 486.25 C 384.09375 486.386719 384.972656 486.5 385.671875 486.574219 C 386.136719 486.640625 386.609375 486.667969 387.082031 486.65625 C 387.65625 486.621094 390.636719 486.835938 392.941406 487.078125 C 394.488281 487.242188 395.730469 487.414062 395.726562 487.53125 C 395.722656 487.652344 394.902344 487.640625 393.507812 487.496094 L 392.320312 487.359375 C 390.921875 487.171875 389.515625 487.0625 388.101562 487.027344 C 387.390625 487.105469 386.679688 487.09375 385.972656 486.988281 C 384.527344 486.828125 383.105469 486.558594 381.703125 486.171875 C 380.886719 485.953125 380.683594 485.863281 381.1875 485.917969 M 536.6875 426.164062 C 536.902344 425.578125 537.082031 425.296875 537.25 425.3125 C 537.28125 425.316406 537.3125 425.328125 537.335938 425.355469 C 537.351562 425.363281 537.367188 425.363281 537.386719 425.355469 C 537.539062 425.355469 537.863281 425.082031 538.226562 424.578125 C 538.585938 424.078125 538.902344 423.765625 539.023438 423.78125 C 539.148438 423.792969 539.101562 424.0625 538.78125 424.601562 C 538.042969 425.878906 536.988281 426.882812 536.644531 426.84375 C 536.496094 426.84375 536.480469 426.613281 536.6875 426.144531 M 223.550781 318.875 C 223.503906 319.976562 223.585938 320.703125 223.792969 320.734375 C 223.980469 320.734375 224.152344 321.488281 224.175781 322.460938 C 224.199219 323.433594 224.441406 323.90625 224.71875 323.933594 C 224.769531 323.941406 224.816406 323.933594 224.859375 323.910156 C 225.421875 323.757812 225.445312 323 225.316406 319.804688 C 225.28125 319.0625 225.5 318.195312 225.773438 317.941406 C 226.046875 317.683594 226.277344 316.828125 226.230469 315.972656 C 226.183594 315.03125 226.257812 314.515625 226.390625 314.53125 C 226.523438 314.542969 226.597656 314.804688 226.71875 315.355469 C 226.8125 316.175781 226.800781 316.988281 226.679688 317.804688 C 226.496094 318.972656 226.519531 319.359375 226.765625 319.386719 L 226.804688 319.386719 C 227.230469 319.386719 227.046875 316.089844 226.777344 311.691406 C 226.699219 310.222656 226.777344 309.609375 227.03125 309.613281 C 227.558594 309.671875 228.535156 312.210938 228.5 313.53125 C 228.5 314.136719 228.707031 314.445312 228.925781 314.464844 C 229.144531 314.488281 229.480469 314.128906 229.578125 313.410156 C 229.644531 312.886719 229.578125 312.613281 229.429688 312.597656 C 229.355469 312.601562 229.292969 312.628906 229.238281 312.6875 C 229.121094 312.808594 229.035156 312.886719 228.972656 312.878906 C 228.800781 312.878906 228.882812 312.152344 229.179688 309.910156 C 229.445312 307.882812 229.824219 305.875 230.316406 303.890625 C 230.660156 302.703125 230.945312 301.898438 231.046875 301.910156 C 231.148438 301.925781 231.101562 302.039062 231.078125 302.300781 C 231.011719 303.136719 230.847656 303.722656 230.703125 303.714844 C 230.5625 303.707031 230.511719 305.027344 230.703125 306.832031 C 230.820312 307.667969 230.871094 308.503906 230.851562 309.34375 C 230.851562 309.34375 230.824219 309.308594 230.804688 309.230469 C 230.785156 309.152344 230.726562 309.027344 230.691406 309.023438 C 230.433594 308.996094 230.234375 311.8125 230.472656 313.175781 C 230.671875 314.226562 230.617188 315.265625 230.308594 316.292969 C 230.027344 317.433594 229.851562 317.980469 229.699219 317.964844 C 229.550781 317.945312 229.496094 317.59375 229.394531 316.902344 C 229.335938 316.507812 229.238281 316.328125 229.128906 316.316406 C 228.875 316.289062 228.566406 317.179688 228.59375 318.371094 C 228.59375 318.742188 228.640625 318.976562 228.707031 318.984375 C 228.769531 318.996094 228.789062 318.910156 228.835938 318.726562 C 228.835938 318.667969 228.886719 318.640625 228.914062 318.644531 C 229.25 318.675781 230.039062 322.347656 230.226562 324.09375 C 230.265625 324.675781 230.46875 325.25 230.65625 325.269531 L 230.726562 325.269531 C 231.078125 325.304688 231.136719 325.964844 231.050781 328.605469 C 231.007812 330.289062 231.101562 330.644531 231.617188 330.832031 L 231.6875 330.832031 C 232.054688 330.875 232.09375 330.613281 231.808594 329.847656 C 231.542969 329.152344 231.5 328.796875 231.6875 328.78125 C 231.695312 328.777344 231.707031 328.777344 231.71875 328.78125 C 232.175781 328.828125 232.339844 330.785156 232.175781 332.324219 C 232.082031 333.207031 232.070312 334.085938 232.136719 334.96875 C 232.175781 335.273438 232.226562 335.425781 232.273438 335.425781 C 232.324219 335.425781 232.410156 335.179688 232.460938 334.691406 C 232.535156 334.070312 232.585938 333.777344 232.640625 333.777344 C 232.695312 333.777344 232.75 334.074219 232.816406 334.652344 C 232.914062 335.363281 232.839844 336.050781 232.59375 336.722656 C 232.136719 337.464844 232.242188 338.769531 232.59375 338.8125 C 232.671875 338.8125 232.769531 338.757812 232.875 338.605469 C 233.046875 338.359375 233.160156 338.199219 233.214844 338.210938 C 233.269531 338.21875 233.253906 338.667969 233.101562 339.898438 C 233.054688 340.398438 233.054688 340.894531 233.101562 341.390625 C 233.101562 341.390625 233.101562 341.335938 233.136719 341.222656 C 233.175781 341.109375 233.21875 341.027344 233.269531 341.03125 C 233.320312 341.035156 233.460938 341.265625 233.527344 341.644531 C 233.648438 342.347656 233.421875 343.109375 232.996094 343.179688 C 232.476562 343.386719 232.449219 343.636719 232.886719 343.925781 C 233.554688 344.417969 234.105469 346.5 233.613281 346.589844 C 233.476562 346.617188 233.484375 346.984375 233.640625 347.441406 C 233.945312 348.355469 234.140625 350.875 233.851562 350.84375 C 233.8125 350.84375 233.777344 350.800781 233.726562 350.722656 C 233.675781 350.644531 233.59375 350.523438 233.558594 350.519531 C 233.382812 350.519531 233.851562 352.214844 234.472656 353.636719 C 234.78125 354.375 234.890625 354.695312 234.84375 354.691406 C 234.800781 354.6875 234.785156 354.644531 234.730469 354.558594 C 234.675781 354.472656 234.613281 354.40625 234.570312 354.402344 C 234.445312 354.402344 234.429688 354.859375 234.515625 355.472656 C 234.695312 356.667969 235.046875 357.453125 235.730469 357.894531 C 236.644531 358.402344 236.644531 358.394531 236.726562 360.847656 C 236.753906 361.851562 236.695312 362.367188 236.550781 362.355469 C 236.484375 362.355469 236.398438 362.21875 236.296875 361.96875 C 236.238281 361.832031 236.199219 361.765625 236.183594 361.765625 C 236.164062 361.765625 236.34375 362.753906 236.777344 364.332031 C 237.308594 366.433594 237.964844 368.496094 237.941406 369.140625 C 237.941406 369.890625 238.011719 370.171875 238.171875 370.1875 C 238.203125 370.195312 238.230469 370.195312 238.261719 370.1875 L 238.289062 370.1875 C 238.445312 370.1875 238.683594 370.730469 238.835938 371.398438 C 239.136719 372.535156 239.585938 373.613281 240.183594 374.625 C 241.011719 375.996094 241.335938 376.757812 241.378906 377.386719 C 241.378906 377.574219 241.347656 377.65625 241.269531 377.648438 C 241.191406 377.640625 240.914062 377.359375 240.648438 376.890625 C 240.527344 376.613281 240.375 376.355469 240.191406 376.113281 C 240.15625 376.113281 240.21875 376.316406 240.382812 376.738281 C 240.910156 377.890625 241.546875 378.980469 242.28125 380.007812 C 242.894531 380.871094 243.414062 381.78125 243.84375 382.746094 C 243.890625 383.035156 244.054688 383.207031 244.339844 383.257812 C 244.414062 383.269531 244.484375 383.257812 244.550781 383.226562 C 244.582031 383.21875 244.613281 383.21875 244.648438 383.226562 C 245.371094 383.300781 247.570312 386.308594 248.042969 387.953125 C 248.335938 388.96875 248.957031 389.644531 249.347656 389.6875 C 249.535156 389.6875 249.664062 389.582031 249.683594 389.277344 C 249.648438 388.363281 249.195312 387.164062 248.9375 387.136719 C 248.859375 387.136719 248.796875 387.230469 248.773438 387.480469 C 248.75 387.734375 248.726562 387.847656 248.695312 387.847656 C 248.664062 387.847656 248.535156 387.390625 248.359375 386.367188 C 248.195312 385.453125 248.152344 385 248.304688 385.03125 C 248.453125 385.0625 248.679688 385.34375 249.09375 385.90625 C 249.507812 386.46875 249.792969 386.703125 250.007812 386.722656 C 250.222656 386.746094 250.226562 386.636719 250.242188 386.421875 C 250.261719 386.207031 250.269531 386.046875 250.308594 386.054688 C 250.34375 386.058594 250.539062 386.679688 250.765625 387.980469 C 251.023438 389.097656 251.292969 389.886719 251.378906 389.898438 C 251.46875 389.90625 251.417969 389.851562 251.414062 389.75 C 251.40625 389.652344 251.476562 389.582031 251.542969 389.589844 C 251.730469 389.589844 252.078125 390.015625 252.457031 390.660156 C 252.835938 391.304688 253.210938 391.785156 253.371094 391.804688 C 253.4375 391.804688 253.480469 391.742188 253.476562 391.585938 C 253.472656 391.429688 253.527344 391.347656 253.597656 391.351562 C 253.671875 391.359375 253.851562 391.535156 254 391.839844 C 254.152344 392.148438 254.289062 392.296875 254.390625 392.296875 C 254.488281 392.296875 254.527344 392.207031 254.515625 391.96875 C 254.507812 391.730469 254.542969 391.539062 254.59375 391.546875 C 254.644531 391.550781 254.867188 392.128906 255.277344 393.539062 C 255.78125 395.214844 255.96875 396.050781 255.800781 396.039062 C 255.628906 396.023438 255.398438 395.601562 254.9375 394.769531 C 254.570312 394.039062 253.867188 393.21875 253.488281 393.152344 L 253.375 393.125 C 252.6875 393.050781 253.9375 395.355469 255.03125 395.910156 C 255.664062 396.417969 256.183594 397.027344 256.582031 397.734375 C 257.457031 399.292969 257.703125 400.117188 257.355469 400.082031 C 257.160156 400.082031 256.777344 399.761719 256.207031 399.167969 C 255.636719 398.574219 255.320312 398.222656 255.292969 398.21875 C 255.265625 398.214844 255.707031 398.765625 256.707031 399.964844 C 257.707031 401.160156 258.464844 401.957031 258.648438 401.976562 C 258.675781 401.976562 258.6875 401.976562 258.6875 401.925781 C 258.65625 401.804688 258.6875 401.753906 258.726562 401.757812 C 258.761719 401.761719 259.058594 401.988281 259.335938 402.355469 C 259.703125 402.8125 259.863281 403.050781 259.792969 403.039062 C 259.710938 403.007812 259.640625 402.960938 259.574219 402.898438 C 259.53125 402.859375 259.476562 402.835938 259.417969 402.824219 C 259.265625 402.824219 259.292969 403.097656 259.539062 403.601562 C 259.859375 404.3125 260.070312 405.054688 260.175781 405.824219 C 260.296875 406.859375 260.378906 406.953125 261.417969 407.261719 C 262.460938 407.574219 262.515625 407.527344 262.742188 408.921875 C 262.917969 409.925781 263.546875 411.058594 264.523438 412.386719 C 266.261719 414.722656 266.984375 416.949219 266.113281 416.859375 C 266.019531 416.847656 265.933594 416.824219 265.851562 416.785156 C 265.707031 416.710938 265.554688 416.65625 265.394531 416.621094 C 265.097656 416.589844 265.515625 417.113281 267.316406 418.9375 C 268.34375 419.96875 268.914062 420.566406 268.835938 420.5625 C 268.742188 420.503906 268.652344 420.441406 268.574219 420.363281 C 268.25 420.050781 267.886719 419.785156 267.488281 419.574219 C 267.265625 419.550781 267.871094 420.40625 269.402344 422.417969 C 271.128906 424.761719 272.351562 426.417969 272.144531 426.394531 C 271.847656 426.210938 271.589844 425.984375 271.367188 425.71875 C 271.027344 425.359375 270.625 425.105469 270.15625 424.953125 C 270.097656 424.941406 270.046875 424.953125 269.996094 424.984375 C 269.632812 425.277344 269.671875 425.410156 271.582031 426.777344 L 274.554688 428.953125 C 274.667969 429.046875 274.792969 429.117188 274.9375 429.15625 C 275.128906 429.15625 274.882812 428.703125 274.195312 427.691406 C 273.226562 426.25 273.011719 425.207031 273.398438 425.25 C 273.59375 425.25 273.949219 425.574219 274.4375 426.25 C 274.925781 426.925781 275.15625 427.4375 274.925781 427.414062 L 274.878906 427.414062 C 274.617188 427.386719 275.027344 427.976562 276.148438 429.148438 C 277.109375 430.183594 277.679688 430.941406 277.546875 431.0625 C 277.414062 431.179688 280.082031 435.328125 281.222656 436.539062 C 281.328125 436.664062 281.464844 436.734375 281.625 436.757812 C 281.757812 436.773438 281.875 436.738281 281.972656 436.644531 C 282.035156 436.585938 282.113281 436.5625 282.199219 436.574219 C 282.5625 436.683594 282.867188 436.878906 283.113281 437.164062 C 283.492188 437.535156 283.570312 437.796875 283.308594 437.769531 C 283.273438 437.765625 283.234375 437.757812 283.199219 437.746094 L 283.148438 437.746094 C 282.828125 437.710938 283.042969 438.488281 283.71875 439.570312 C 284.632812 441.046875 285.546875 441.9375 285.875 441.972656 C 286.128906 442 286.058594 441.515625 285.417969 440.40625 C 284.9375 439.546875 284.835938 438.820312 285.257812 438.863281 L 285.324219 438.863281 C 285.691406 438.90625 285.707031 438.546875 285.351562 438.105469 C 285.148438 437.808594 284.882812 437.585938 284.554688 437.4375 C 284.539062 437.429688 284.519531 437.429688 284.5 437.4375 C 284.484375 437.445312 284.46875 437.445312 284.457031 437.4375 C 283.878906 437.160156 283.386719 436.773438 282.976562 436.285156 C 282.300781 435.558594 282.0625 435.253906 282.171875 435.265625 C 282.4375 435.375 282.679688 435.515625 282.90625 435.691406 C 283.878906 436.371094 284.769531 437.144531 285.582031 438.007812 C 286.46875 438.964844 287.453125 439.808594 288.53125 440.539062 C 290.453125 441.839844 291.386719 442.550781 290.644531 442.472656 L 290.449219 442.445312 C 290.308594 442.410156 290.167969 442.378906 290.023438 442.359375 C 289.78125 442.332031 290.078125 442.5 291.066406 442.988281 C 291.792969 443.332031 292.4375 443.789062 293 444.359375 C 293.152344 444.582031 293.351562 444.75 293.597656 444.855469 C 293.625 444.871094 293.652344 444.871094 293.679688 444.855469 C 293.679688 444.855469 293.71875 444.855469 293.753906 444.855469 C 294.34375 445.078125 294.875 445.394531 295.347656 445.808594 C 296.097656 446.367188 296.398438 446.652344 296.191406 446.632812 C 296.105469 446.613281 296.023438 446.589844 295.941406 446.554688 C 295.902344 446.527344 295.855469 446.511719 295.808594 446.5 C 295.699219 446.5 296.265625 446.90625 297.304688 447.472656 C 298.773438 448.277344 299.523438 448.84375 299.425781 448.953125 C 299.324219 449.0625 299.75 449.480469 300.441406 449.921875 C 301.136719 450.359375 301.265625 450.582031 300.785156 450.625 C 300.199219 450.625 300.328125 450.828125 301.296875 451.492188 C 302.375 452.222656 302.738281 452.566406 302.359375 452.53125 C 301.808594 452.40625 301.273438 452.226562 300.753906 451.996094 C 300.375 451.832031 299.988281 451.691406 299.589844 451.582031 C 299.34375 451.554688 299.890625 451.964844 301.414062 453.09375 C 302.199219 453.703125 303.042969 454.207031 303.949219 454.613281 L 303.972656 454.613281 C 303.972656 454.613281 303.972656 454.613281 304.003906 454.613281 C 304.730469 454.921875 305.417969 455.300781 306.066406 455.753906 C 307.683594 456.796875 308.179688 457.339844 307.609375 457.28125 C 306.878906 457.113281 306.179688 456.863281 305.511719 456.527344 C 304.964844 456.265625 304.402344 456.039062 303.828125 455.847656 C 303.660156 455.847656 304.144531 456.160156 305.226562 456.914062 C 305.84375 457.398438 306.523438 457.777344 307.257812 458.050781 C 307.300781 458.050781 307.332031 458.050781 307.34375 458.050781 C 307.394531 457.988281 307.453125 457.964844 307.53125 457.980469 C 307.957031 458.027344 308.902344 458.789062 310.007812 459.808594 C 310.3125 460.105469 310.527344 460.265625 310.660156 460.265625 C 310.792969 460.265625 310.828125 460.152344 310.800781 459.875 C 310.554688 459.222656 310.113281 458.753906 309.472656 458.476562 C 308.992188 458.234375 308.84375 458.101562 308.992188 458.113281 C 309.078125 458.128906 309.160156 458.152344 309.238281 458.183594 C 310.613281 458.710938 311.945312 459.332031 313.234375 460.046875 C 315.210938 461.070312 315.90625 461.449219 315.703125 461.414062 C 315.503906 461.371094 315.308594 461.308594 315.113281 461.234375 C 314.894531 461.148438 314.667969 461.085938 314.433594 461.035156 C 314.164062 461.007812 314.609375 461.328125 316.003906 462.242188 C 317.3125 463.039062 317.765625 463.34375 317.53125 463.320312 C 317.335938 463.28125 317.148438 463.226562 316.964844 463.160156 C 316.546875 462.988281 316.117188 462.863281 315.671875 462.789062 C 314.914062 462.707031 315.59375 463.378906 317.542969 464.242188 C 318.953125 464.886719 319.488281 465.15625 319.25 465.15625 C 319.15625 465.140625 319.0625 465.117188 318.972656 465.089844 L 318.941406 465.089844 C 318.507812 465.042969 319.300781 465.589844 321.417969 466.773438 C 323.066406 467.730469 323.894531 468.144531 324.265625 468.144531 C 324.558594 468.175781 324.558594 467.972656 324.445312 467.632812 C 324.332031 467.296875 324.492188 467.117188 324.789062 467.148438 C 324.964844 467.175781 325.128906 467.230469 325.28125 467.316406 C 325.875 467.628906 326.054688 467.820312 325.738281 467.773438 L 325.582031 467.773438 C 324.632812 467.675781 327.445312 469.175781 329.921875 470.101562 C 330.457031 470.320312 331.007812 470.472656 331.582031 470.558594 C 331.964844 470.601562 332.132812 470.527344 332.039062 470.34375 C 331.941406 470.164062 331.804688 469.976562 331.871094 469.984375 C 332.273438 470.214844 332.644531 470.492188 332.988281 470.804688 C 333.726562 471.433594 334.535156 471.949219 335.417969 472.347656 C 335.519531 472.347656 335.464844 472.242188 335.164062 471.960938 C 334.8125 471.65625 334.605469 471.273438 334.539062 470.8125 C 334.539062 470.523438 334.5 470.246094 334.421875 469.96875 C 334.457031 469.882812 333.625 469.472656 332.644531 469.101562 C 331.664062 468.734375 331.378906 468.515625 331.753906 468.539062 L 331.84375 468.539062 C 332.199219 468.574219 331.996094 468.171875 331.386719 467.664062 C 330.953125 467.28125 330.753906 467.089844 330.832031 467.097656 C 331.269531 467.304688 331.6875 467.542969 332.082031 467.816406 C 332.472656 468.082031 332.882812 468.300781 333.320312 468.472656 C 333.46875 468.472656 333.265625 468.25 332.757812 467.761719 C 332.375 467.304688 332.148438 467.042969 332.253906 467.054688 C 332.359375 467.0625 333.082031 467.511719 334.71875 468.472656 C 335.898438 469.207031 337.125 469.847656 338.398438 470.402344 C 338.753906 470.464844 339.046875 470.652344 339 470.761719 C 338.953125 470.871094 338.753906 470.851562 338.425781 470.816406 C 338.117188 470.785156 337.8125 470.730469 337.511719 470.65625 C 337.289062 470.601562 337.066406 470.558594 336.839844 470.527344 C 336.609375 470.527344 336.609375 470.554688 336.867188 470.671875 C 337.898438 471.046875 338.945312 471.351562 340.011719 471.585938 C 340.292969 471.636719 340.539062 471.667969 340.753906 471.691406 C 342.441406 471.871094 342.226562 471.234375 340.164062 470.367188 C 339.960938 470.261719 339.746094 470.175781 339.523438 470.113281 C 339.414062 470.113281 339.675781 470.289062 340.277344 470.683594 C 340.980469 471.078125 341.265625 471.273438 341.140625 471.257812 C 340.703125 471.125 340.28125 470.957031 339.871094 470.753906 C 338.933594 470.300781 338.140625 469.84375 338.191406 469.71875 C 338.242188 469.597656 337.664062 469.210938 336.921875 468.898438 C 334.90625 468.035156 333.984375 467.558594 334.183594 467.582031 C 335.074219 467.863281 335.945312 468.195312 336.796875 468.585938 C 340.628906 470.265625 343.074219 471.328125 343.816406 471.980469 C 344.457031 472.550781 343.839844 472.78125 341.808594 472.566406 C 341.492188 472.535156 341.144531 472.496094 340.765625 472.441406 C 339.757812 472.257812 338.941406 472.132812 338.332031 472.070312 C 336.816406 471.910156 336.597656 472.125 337.960938 472.765625 C 338.515625 473.03125 339.09375 473.210938 339.703125 473.304688 L 339.886719 473.304688 C 340.386719 473.304688 340.289062 473.257812 339.492188 473.039062 C 338.699219 472.820312 338.203125 472.5 338.246094 472.390625 C 338.292969 472.28125 338.355469 472.320312 338.484375 472.335938 C 338.804688 472.390625 339.109375 472.492188 339.398438 472.636719 C 339.648438 472.753906 339.910156 472.828125 340.1875 472.859375 C 340.40625 472.859375 340.570312 472.859375 340.601562 472.773438 C 340.632812 472.6875 340.867188 472.585938 341.1875 472.617188 C 341.953125 472.699219 343.386719 473.257812 345.058594 474.148438 C 345.675781 474.539062 346.335938 474.84375 347.035156 475.0625 C 347.144531 475.0625 347.203125 475.0625 347.226562 474.980469 C 347.25 474.898438 347.304688 474.867188 347.386719 474.878906 C 347.691406 474.984375 347.960938 475.152344 348.195312 475.371094 C 348.976562 475.9375 349.417969 476.09375 350.933594 476.355469 C 352.210938 476.570312 352.757812 476.734375 352.703125 476.917969 C 352.683594 476.984375 352.535156 476.996094 352.324219 476.976562 C 352.050781 476.941406 351.78125 476.875 351.519531 476.785156 C 351.230469 476.679688 350.9375 476.601562 350.636719 476.554688 C 349.847656 476.472656 350.609375 477.261719 352.660156 478.511719 C 354.019531 479.410156 355.492188 480.0625 357.074219 480.460938 C 358.191406 480.703125 359.269531 481.054688 360.316406 481.519531 C 361.433594 482.011719 362.589844 482.386719 363.785156 482.644531 C 365.539062 482.902344 365.636719 482.976562 364.242188 483.167969 C 363.082031 483.289062 362.808594 483.335938 363.480469 483.410156 C 363.75 483.4375 364.175781 483.46875 364.761719 483.511719 C 365.066406 483.511719 365.335938 483.554688 365.566406 483.578125 C 366.234375 483.648438 366.53125 483.726562 366.160156 483.761719 C 365.664062 483.792969 365.726562 484.03125 366.402344 484.257812 C 367.074219 484.488281 367.242188 484.824219 366.835938 484.996094 C 366.300781 485.191406 366.496094 485.382812 367.769531 485.683594 C 368.339844 485.824219 368.914062 485.925781 369.496094 485.988281 C 370.527344 486.097656 370.84375 485.933594 369.75 485.535156 C 368.585938 485.078125 368.40625 484.78125 369.082031 484.851562 C 369.425781 484.898438 369.761719 484.972656 370.09375 485.078125 C 370.894531 485.296875 372.238281 485.789062 373.144531 486.09375 C 374.144531 486.460938 375.175781 486.707031 376.234375 486.839844 L 376.378906 486.839844 C 377.558594 486.984375 377.898438 487.09375 377.507812 487.261719 C 377.113281 487.433594 377.316406 487.664062 377.996094 487.933594 C 378.535156 488.152344 379.09375 488.285156 379.671875 488.339844 C 381.140625 488.496094 382.519531 488.191406 382.25 487.664062 C 382.121094 487.4375 382.085938 487.324219 382.140625 487.328125 C 382.195312 487.332031 382.214844 487.363281 382.28125 487.429688 C 382.984375 487.726562 383.71875 487.921875 384.480469 488.003906 C 385.417969 488.121094 386.105469 488.359375 386.085938 488.523438 C 386.085938 488.609375 386.171875 488.664062 386.355469 488.6875 C 386.664062 488.699219 386.96875 488.671875 387.269531 488.605469 C 387.644531 488.53125 388.023438 488.511719 388.40625 488.546875 C 389.101562 488.664062 389.78125 488.847656 390.441406 489.097656 C 390.886719 489.273438 391.34375 489.417969 391.808594 489.53125 C 391.960938 489.53125 391.808594 489.4375 391.484375 489.207031 C 391.0625 488.921875 391.167969 488.824219 391.800781 488.894531 C 392.003906 488.894531 392.257812 488.953125 392.578125 489.007812 C 392.898438 489.0625 393.203125 489.097656 393.550781 489.136719 C 396.535156 489.449219 401.007812 489.289062 399.113281 488.933594 C 397.589844 488.640625 397.714844 488.601562 399.730469 488.382812 C 401.101562 488.214844 401.660156 488.144531 401.40625 488.117188 C 401.152344 488.089844 400.550781 488.117188 399.394531 488.117188 C 398.671875 488.117188 398.128906 488.082031 397.746094 488.039062 C 397.003906 487.960938 396.886719 487.84375 397.320312 487.757812 C 397.972656 487.640625 399.898438 487.421875 402.835938 487.167969 C 405.652344 486.929688 408.679688 486.621094 409.371094 486.386719 C 411.097656 486.089844 412.835938 485.902344 414.585938 485.824219 C 416.253906 485.71875 417.90625 485.507812 419.542969 485.191406 C 420.511719 484.945312 423.363281 484.734375 426.253906 484.328125 C 429.144531 483.921875 432.09375 483.578125 433.3125 483.535156 C 433.710938 483.488281 434.113281 483.464844 434.511719 483.46875 C 434.664062 483.46875 434.511719 483.542969 434.023438 483.625 C 433.113281 483.816406 432.65625 483.894531 433.011719 483.929688 C 433.71875 483.980469 437.039062 483.660156 440.492188 483.320312 C 443.949219 482.976562 447.460938 482.238281 448.601562 482 C 449.441406 481.777344 450.296875 481.625 451.164062 481.542969 C 451.222656 481.542969 451.257812 481.542969 451.265625 481.589844 C 451.277344 481.632812 451.265625 481.617188 451.316406 481.617188 C 452.078125 481.453125 452.792969 481.183594 453.472656 480.804688 C 455.496094 479.820312 455.714844 479.761719 457.636719 479.675781 C 461.664062 479.3125 464.484375 478.730469 463.417969 478.59375 C 462.617188 478.40625 464.039062 477.507812 465.164062 477.539062 C 466.402344 477.566406 472.671875 475.257812 474.851562 474.089844 C 475.992188 473.421875 476.507812 473.144531 476.640625 473.175781 C 476.773438 473.207031 476.640625 473.296875 476.503906 473.503906 C 476.414062 473.613281 476.417969 473.667969 476.503906 473.675781 C 477.21875 473.75 483.515625 470.628906 486.246094 468.40625 C 487.125 467.746094 488.039062 467.136719 488.984375 466.578125 C 489.984375 465.917969 491.097656 465.210938 492.363281 464.511719 C 495.914062 462.511719 496.550781 461.992188 495.78125 461.605469 C 495.476562 461.4375 496.238281 460.632812 497.824219 459.425781 C 499.40625 458.214844 501.824219 456.6875 504.613281 454.621094 C 507.941406 452.339844 510.136719 450.464844 509.925781 450.441406 C 509.816406 450.441406 509.085938 450.898438 507.554688 452.019531 C 507.21875 452.28125 506.855469 452.503906 506.472656 452.695312 C 506.410156 452.695312 506.738281 452.367188 507.457031 451.683594 C 508.304688 450.902344 509.476562 449.796875 510.039062 449.398438 C 514.847656 446.082031 517.144531 444.347656 517.753906 444.183594 C 518.269531 444.082031 520.394531 442.660156 522.402344 441.019531 C 524.410156 439.375 526.308594 437.507812 526.667969 436.882812 C 527.425781 435.714844 528.308594 434.648438 529.320312 433.6875 C 529.71875 433.269531 529.917969 432.664062 529.679688 432.429688 C 529.285156 432.046875 529.347656 431.972656 530.777344 430.953125 C 532.339844 429.925781 533.09375 429.230469 532.796875 429.199219 C 532.691406 429.203125 532.59375 429.222656 532.496094 429.261719 C 532.4375 429.285156 532.375 429.296875 532.308594 429.300781 C 532.125 429.300781 532.492188 428.878906 533.398438 427.929688 C 534.308594 426.980469 534.90625 426.601562 535.132812 426.628906 C 535.363281 426.65625 535.199219 427.148438 534.464844 428.121094 C 534.007812 428.773438 533.777344 429.519531 534.117188 429.671875 C 534.140625 429.691406 534.167969 429.699219 534.199219 429.699219 C 534.617188 429.746094 535.773438 428.746094 537.152344 427.273438 C 537.890625 426.472656 538.695312 425.542969 539.476562 424.554688 C 540.257812 423.570312 540.921875 422.460938 541.539062 421.4375 C 544.277344 417.242188 550.257812 408.265625 554.28125 402.625 C 555.753906 400.550781 557.054688 398.371094 558.179688 396.085938 C 558.78125 394.582031 559.542969 393.160156 560.460938 391.824219 C 561.320312 390.707031 561.929688 389.464844 562.289062 388.101562 C 562.746094 386.773438 564.0625 383.589844 565.160156 380.929688 C 566.113281 378.578125 566.890625 376.167969 567.496094 373.699219 C 567.902344 370.792969 569.734375 364.113281 569.949219 364.113281 C 570.0625 364.113281 570.21875 363.820312 570.320312 363.390625 C 570.433594 362.824219 570.625 362.40625 570.773438 362.335938 C 571.09375 362.195312 572.773438 357.894531 572.886719 356.617188 C 572.929688 356.238281 572.855469 356.03125 572.71875 356.019531 C 572.613281 356.027344 572.527344 356.070312 572.460938 356.152344 C 572.351562 356.277344 572.273438 356.339844 572.226562 356.332031 C 572.179688 356.328125 572.179688 356.046875 572.382812 355.542969 C 572.609375 354.898438 572.648438 354.242188 572.5 353.570312 C 572.320312 352.988281 572.296875 352.398438 572.433594 351.800781 C 572.6875 350.703125 573.644531 349.195312 573.960938 349.226562 C 574.023438 349.226562 574.0625 349.308594 574.058594 349.46875 C 574.054688 349.628906 574.058594 349.632812 574.085938 349.632812 C 574.113281 349.632812 574.230469 349.371094 574.347656 348.828125 C 574.46875 348.285156 574.542969 348.050781 574.613281 348.058594 C 574.6875 348.0625 574.6875 348.148438 574.710938 348.316406 C 574.816406 348.691406 574.5 350.265625 574.117188 351.59375 C 573.601562 353.480469 573.480469 354.394531 573.722656 354.925781 C 573.8125 355.074219 573.878906 355.160156 573.929688 355.164062 C 573.980469 355.167969 574.070312 354.917969 574.089844 354.308594 C 574.160156 353.34375 574.339844 352.398438 574.632812 351.476562 C 575.414062 349.28125 575.183594 346.453125 574.65625 346.390625 C 574.523438 346.390625 574.371094 346.535156 574.199219 346.933594 C 573.742188 347.914062 573.476562 348.410156 573.335938 348.394531 C 573.195312 348.382812 573.203125 347.65625 573.441406 346.199219 C 573.636719 344.960938 574.023438 343.761719 574.355469 343.460938 C 574.683594 343.160156 575.007812 341.921875 575.265625 340.75 C 575.527344 339.574219 575.558594 338.464844 575.367188 338.425781 C 575.277344 338.425781 575.285156 337.597656 575.402344 336.695312 C 575.523438 335.789062 575.742188 335.015625 575.859375 335.03125 C 575.980469 335.050781 576.195312 334.148438 576.28125 333.125 C 576.339844 332.351562 576.46875 331.589844 576.660156 330.839844 C 576.800781 330.613281 576.917969 330.503906 577.007812 330.511719 C 577.203125 330.535156 577.230469 331.160156 577.007812 332.265625 C 576.773438 333.300781 576.792969 333.949219 576.9375 333.964844 C 577.085938 333.976562 577.226562 333.648438 577.429688 332.886719 C 577.886719 331.09375 577.378906 328.007812 576.875 327.953125 C 576.773438 327.953125 576.671875 328.046875 576.585938 328.308594 C 576.492188 328.621094 576.378906 328.925781 576.242188 329.222656 C 576.308594 328.875 576.390625 328.53125 576.5 328.195312 C 576.890625 326.65625 577.101562 325.09375 576.957031 325.074219 C 576.917969 325.074219 576.863281 325.15625 576.78125 325.351562 C 576.78125 325.382812 576.753906 325.398438 576.746094 325.394531 C 576.664062 325.394531 576.875 324.027344 577.121094 322.164062 C 577.328125 320.609375 577.4375 319.050781 577.441406 317.484375 C 577.359375 317.140625 577.414062 316.800781 577.558594 316.800781 C 577.863281 316.800781 577.953125 313.148438 577.558594 312.109375 C 577.429688 311.710938 577.523438 309.484375 577.742188 306.679688 C 577.960938 303.871094 577.996094 300.5 578.234375 297.816406 C 578.46875 292.929688 578.398438 288.042969 578.019531 283.164062 C 577.957031 280.976562 577.78125 278.796875 577.492188 276.628906 C 577.214844 274.804688 576.972656 273.398438 576.78125 272.691406 C 576.355469 270.988281 575.371094 267.257812 574.765625 264.140625 C 572.765625 255.300781 570.199219 249.289062 568.832031 247.472656 C 567.417969 245.886719 564.046875 239.363281 563.351562 237.507812 C 561.976562 234.316406 560.359375 231.257812 558.5 228.324219 L 556.792969 225.441406 C 556.238281 224.597656 555.738281 223.835938 555.300781 223.15625 C 554.414062 221.789062 553.75 220.71875 553.277344 219.902344 C 552.335938 218.25 552.058594 217.621094 552.289062 217.472656 C 552.445312 217.371094 552.171875 216.847656 551.710938 216.316406 C 551.121094 215.609375 550.664062 214.824219 550.339844 213.964844 C 549.828125 212.59375 549.683594 212.261719 547.511719 210.371094 C 544.460938 207.820312 544.207031 207.042969 538.609375 199.179688 C 534.632812 193.941406 533.128906 192.074219 530.046875 189.34375 C 528.65625 188.078125 527.410156 186.792969 525.863281 185.296875 C 524.316406 183.804688 522.523438 182.0625 520.175781 179.730469 C 518.449219 178.121094 516.523438 176.398438 514.863281 174.914062 C 513.207031 173.429688 511.640625 172.339844 510.84375 171.71875 C 509.460938 170.714844 508.148438 169.632812 506.898438 168.472656 C 505.902344 167.40625 503.105469 165.601562 500.628906 164.214844 C 498.777344 163.304688 497.097656 162.597656 496.421875 162.527344 C 496.171875 162.5 496.054688 162.558594 496.128906 162.730469 C 496.203125 162.898438 496.128906 163.046875 495.945312 163.03125 C 495.710938 162.980469 495.492188 162.890625 495.289062 162.761719 C 494.582031 162.34375 494.449219 162.101562 494.832031 162.136719 C 494.878906 162.148438 494.929688 162.160156 494.980469 162.164062 C 495.148438 162.164062 494.636719 161.976562 493.835938 161.742188 C 492.011719 161.175781 491.984375 161.207031 492.261719 160.703125 C 492.445312 160.367188 491.933594 159.835938 490.984375 159.332031 C 490.511719 159.0625 490.007812 158.875 489.476562 158.761719 C 489.363281 158.761719 489.285156 158.761719 489.257812 158.8125 C 489.230469 158.863281 489.121094 158.925781 488.988281 158.910156 C 488.488281 158.863281 487.410156 158.144531 486.195312 157.023438 C 484.578125 155.5 481.726562 154.28125 477.859375 153.105469 C 476.136719 152.617188 472.292969 151.429688 469.332031 150.296875 C 466.292969 149.34375 462.324219 148.226562 460.601562 147.851562 C 457.453125 147.3125 453.105469 145.90625 450.65625 145.070312 C 450.097656 144.871094 447.035156 144.046875 443.839844 143.246094 C 440.625 142.613281 437.292969 141.832031 436.390625 141.5 C 435.269531 141.042969 432.832031 140.75 430.371094 140.453125 L 429.460938 140.355469 C 427.675781 140.125 425.886719 140.078125 424.089844 140.207031 C 422.890625 140.394531 419.121094 140.296875 415.597656 140.382812 C 410.917969 140.417969 406.253906 140.71875 401.605469 141.296875 C 399.257812 141.574219 398.8125 141.902344 399.058594 142.207031 C 399.402344 142.5625 399.394531 142.691406 399 142.664062 C 398.753906 142.628906 398.507812 142.582031 398.265625 142.519531 C 398.046875 142.46875 397.828125 142.433594 397.601562 142.414062 C 396.894531 142.328125 396.183594 142.328125 395.476562 142.414062 C 394.753906 142.523438 394.027344 142.558594 393.296875 142.507812 C 393.199219 142.507812 393.113281 142.507812 393.035156 142.46875 C 392.910156 142.441406 392.785156 142.421875 392.660156 142.414062 C 391.769531 142.339844 390.882812 142.363281 389.996094 142.492188 C 388.5 142.671875 387.933594 142.84375 388.53125 142.949219 C 389.128906 143.050781 388.53125 143.164062 386.9375 143.289062 C 385.65625 143.351562 384.402344 143.566406 383.171875 143.9375 C 381.625 144.582031 377.207031 145.402344 375.074219 145.347656 C 372.84375 145.371094 368.414062 146.347656 368.503906 146.71875 C 368.597656 147.089844 366.269531 147.804688 363.0625 148.753906 C 361.949219 149.058594 360.78125 149.5625 360.503906 149.859375 C 360.128906 150.230469 359.132812 150.511719 357.695312 150.898438 C 356.039062 151.355469 355.324219 151.710938 355.71875 151.753906 C 356.285156 151.734375 356.84375 151.640625 357.390625 151.480469 C 357.714844 151.378906 358.050781 151.328125 358.394531 151.324219 C 358.847656 151.375 357.9375 151.945312 356.164062 152.539062 C 354.023438 153.402344 351.972656 154.445312 350.015625 155.671875 C 345.625 158.242188 334.949219 163.253906 333.425781 163.304688 C 332.925781 163.394531 332.46875 163.589844 332.054688 163.882812 C 331.90625 164.019531 331.730469 164.109375 331.53125 164.152344 C 331.46875 164.152344 331.472656 164.070312 331.578125 163.9375 C 331.824219 163.597656 331.777344 163.421875 331.527344 163.394531 C 330.933594 163.335938 329.183594 164.101562 327.382812 165.492188 C 325.71875 166.738281 325.199219 167.105469 324.964844 167.082031 C 324.886719 167.070312 324.832031 167.023438 324.800781 166.945312 C 324.769531 166.875 324.714844 166.835938 324.636719 166.824219 C 324.433594 166.824219 324.058594 167.054688 323.269531 167.699219 C 322.480469 168.34375 321.925781 168.675781 321.683594 168.648438 C 321.554688 168.648438 321.5 168.53125 321.519531 168.328125 C 321.519531 168.328125 321.519531 168.328125 321.484375 168.328125 C 321.148438 168.410156 320.84375 168.550781 320.570312 168.753906 C 319.984375 169.125 319.65625 169.484375 319.777344 169.667969 C 319.894531 169.851562 319.515625 170.339844 318.976562 170.761719 C 318.425781 171.273438 315.9375 172.589844 313.695312 173.992188 C 311.527344 175.320312 309.457031 176.507812 309.238281 176.484375 C 309.105469 176.484375 308.496094 176.941406 307.734375 177.691406 C 306.789062 178.726562 306.363281 179.089844 305.953125 179.132812 C 305.675781 179.132812 304.828125 179.730469 304.226562 180.253906 C 302.78125 181.4375 298.050781 184.609375 297.601562 184.5625 C 297.558594 184.5625 297.554688 184.523438 297.601562 184.449219 C 297.652344 184.375 297.648438 184.347656 297.625 184.347656 C 297.164062 184.617188 296.75 184.941406 296.378906 185.328125 C 294.417969 187.082031 287.207031 193.15625 283.199219 196.542969 C 279.882812 199.28125 278.179688 201.980469 278.902344 202.605469 C 279.1875 202.847656 278.703125 203.847656 277.792969 205.425781 C 276.886719 207.007812 275.554688 209.164062 273.894531 211.5625 C 270.699219 216.46875 266.714844 222.613281 263.273438 227.90625 L 260.078125 232.886719 C 258.910156 234.9375 257.859375 236.539062 257.730469 236.539062 C 257.589844 236.539062 257.246094 237.089844 256.953125 237.804688 C 256.664062 238.515625 255.613281 240.191406 254.757812 241.554688 C 253.980469 242.699219 253.269531 243.882812 252.625 245.105469 C 251.828125 246.632812 250.074219 250.363281 248.292969 253.582031 C 246.746094 256.6875 245.394531 259.425781 245.199219 259.40625 C 245.199219 259.40625 245.199219 259.40625 245.175781 259.378906 C 245.175781 259.292969 245.140625 259.25 245.09375 259.246094 C 244.945312 259.246094 244.636719 259.660156 244.300781 260.308594 C 243.875 261.148438 243.277344 262.058594 243.011719 262.09375 C 242.675781 262.234375 242.277344 263.089844 241.96875 264.339844 C 241.429688 266.597656 239.597656 270.273438 239.167969 270.273438 L 239.140625 270.273438 C 238.917969 270.246094 238.683594 271.050781 238.328125 272.976562 C 237.929688 275.183594 237.648438 275.964844 237.164062 276.460938 C 236.679688 276.957031 236.371094 277.738281 236.210938 279.277344 C 236.03125 280.617188 235.710938 281.921875 235.25 283.195312 C 234.851562 284.203125 234.601562 285.019531 234.699219 285.019531 C 234.796875 285.019531 234.664062 285.613281 234.347656 286.390625 C 234.203125 286.804688 234.082031 287.03125 233.992188 287.015625 C 233.898438 287.003906 233.800781 286.664062 233.753906 285.9375 C 233.753906 285.566406 233.707031 285.203125 233.609375 284.847656 C 233.480469 285.332031 233.410156 285.824219 233.394531 286.328125 C 233.265625 288.609375 232.976562 290.089844 232.75 290.066406 C 232.652344 290.066406 232.570312 289.792969 232.511719 289.214844 C 232.5 288.90625 232.453125 288.601562 232.375 288.304688 C 232.316406 288.605469 232.300781 288.910156 232.324219 289.214844 C 232.324219 290.785156 231.316406 294.160156 230.890625 294.121094 C 230.773438 294.121094 230.742188 292.890625 230.832031 291.445312 C 230.917969 290.210938 230.945312 289.617188 230.890625 289.617188 C 230.722656 289.992188 230.601562 290.378906 230.53125 290.78125 C 230.28125 291.84375 230.117188 292.921875 230.039062 294.007812 C 230.039062 294.734375 229.90625 295.210938 229.785156 295.195312 C 229.667969 295.183594 229.605469 294.570312 229.683594 293.96875 C 229.777344 293.246094 229.648438 292.746094 229.417969 292.71875 C 229.0625 292.675781 229.09375 292.433594 229.539062 291.390625 C 229.769531 290.863281 229.851562 290.589844 229.785156 290.585938 C 229.722656 290.582031 229.285156 291.109375 228.539062 292.246094 C 228.414062 292.445312 228.332031 292.542969 228.289062 292.539062 C 228.25 292.535156 228.289062 292.15625 228.464844 291.375 C 228.632812 290.683594 228.695312 290.335938 228.644531 290.332031 C 228.59375 290.324219 228.558594 290.429688 228.464844 290.636719 C 228.4375 290.710938 228.398438 290.738281 228.359375 290.730469 C 227.949219 290.691406 226.820312 287.652344 226.074219 283.425781 C 226.039062 283.246094 225.992188 283.066406 225.933594 282.890625 C 225.277344 286.757812 224.742188 290.667969 224.328125 294.621094 C 223.667969 300.851562 223.324219 307.101562 223.289062 313.367188 C 223.429688 312.304688 223.476562 311.238281 223.4375 310.171875 C 223.40625 309.972656 223.410156 309.875 223.4375 309.878906 C 223.464844 309.882812 223.609375 310.136719 223.769531 310.671875 C 224.0625 311.507812 224.261719 311.941406 224.367188 311.957031 C 224.472656 311.96875 224.5 311.472656 224.417969 310.433594 C 224.371094 310.179688 224.359375 309.917969 224.382812 309.660156 C 224.492188 309.957031 224.566406 310.257812 224.605469 310.570312 C 224.757812 311.246094 224.882812 311.59375 225.035156 311.609375 C 225.183594 311.621094 225.300781 311.40625 225.492188 310.960938 C 225.796875 310.117188 225.988281 309.6875 226.097656 309.699219 C 226.207031 309.714844 226.246094 310.332031 226.207031 311.585938 C 226.179688 312.527344 226.085938 312.957031 225.914062 312.957031 C 225.867188 312.957031 225.804688 312.902344 225.746094 312.816406 C 225.6875 312.734375 225.644531 312.671875 225.585938 312.664062 C 225.339844 312.640625 225 313.347656 224.796875 314.539062 C 224.558594 315.910156 224.179688 317.023438 223.992188 317.023438 C 223.808594 317.023438 223.628906 317.898438 223.539062 318.898438 M 229.59375 326.582031 C 229.558594 327.355469 229.59375 327.742188 229.71875 327.75 C 229.84375 327.761719 230 327.359375 230.175781 326.542969 C 230.394531 325.652344 230.398438 325.371094 230.128906 325.34375 C 230.101562 325.339844 230.070312 325.339844 230.042969 325.34375 C 229.828125 325.34375 229.585938 325.855469 229.585938 326.582031 M 229.65625 324.160156 C 229.847656 324.160156 229.898438 323.546875 229.78125 322.949219 C 229.65625 322.25 229.511719 321.78125 229.367188 321.765625 C 229.257812 321.765625 229.144531 322.257812 229.203125 322.980469 C 229.242188 323.566406 229.445312 324.140625 229.660156 324.160156 M 227.496094 314.519531 C 227.859375 314.519531 227.835938 311.851562 227.445312 311.109375 C 227.445312 311.074219 227.402344 311.054688 227.382812 311.054688 C 227.253906 311.054688 227.148438 311.621094 227.121094 312.570312 C 227.066406 313.652344 227.285156 314.5 227.484375 314.519531 M 237.074219 373.179688 C 236.953125 373.21875 237.324219 374.773438 238.128906 376.691406 C 239.117188 379.132812 239.496094 379.859375 239.871094 379.886719 C 239.933594 379.890625 239.992188 379.878906 240.050781 379.859375 C 240.554688 379.65625 240.507812 379.542969 239.4375 377.746094 C 238.78125 376.703125 238.222656 375.613281 237.757812 374.476562 C 237.503906 373.699219 237.214844 373.175781 237.089844 373.160156 M 235.296875 367.585938 C 235.375 367.875 235.453125 368.015625 235.519531 368.042969 C 235.589844 368.070312 235.609375 367.992188 235.640625 367.882812 C 235.640625 366.96875 234.761719 361.429688 234.269531 360.683594 C 234.261719 360.671875 234.253906 360.664062 234.238281 360.660156 C 234.109375 360.660156 234.238281 361.824219 234.515625 363.515625 C 234.832031 365.339844 235.152344 367.140625 235.289062 367.625 M 246.898438 388.476562 C 247.453125 389.257812 247.808594 389.601562 247.964844 389.617188 C 248.386719 389.664062 247.617188 387.578125 246.140625 385.152344 C 245.957031 384.835938 245.757812 384.53125 245.53125 384.242188 C 245.699219 384.648438 245.894531 385.042969 246.117188 385.421875 C 246.664062 386.488281 247.03125 387.378906 246.898438 387.425781 L 246.871094 387.425781 C 246.722656 387.425781 246.414062 386.9375 246.199219 386.425781 C 245.929688 385.820312 245.652344 385.441406 245.523438 385.425781 L 245.496094 385.425781 C 245.191406 385.558594 245.847656 386.980469 246.898438 388.472656 M 268.25 422.710938 C 268.160156 422.453125 268.25 422.335938 268.402344 422.355469 C 268.644531 422.417969 268.859375 422.527344 269.046875 422.691406 C 269.230469 422.859375 269.433594 422.992188 269.664062 423.085938 C 269.761719 423.085938 269.699219 422.957031 269.472656 422.660156 C 269.0625 422.144531 268.570312 421.722656 267.992188 421.402344 C 267.933594 421.367188 267.871094 421.34375 267.800781 421.332031 C 267.535156 421.304688 267.574219 421.714844 267.847656 422.246094 C 267.976562 422.542969 268.136719 422.820312 268.328125 423.082031 C 268.355469 423.082031 268.328125 422.953125 268.25 422.691406 M 287.039062 441.96875 C 287.199219 442.488281 287.371094 442.65625 288.0625 442.960938 C 288.179688 443.03125 288.304688 443.078125 288.4375 443.105469 C 288.847656 443.144531 288.34375 442.359375 287.523438 441.820312 C 287.4375 441.761719 287.347656 441.722656 287.246094 441.707031 C 287.097656 441.707031 287.019531 441.78125 287.058594 441.96875 M 337.410156 475.589844 C 338.324219 475.90625 343.726562 477.734375 344.015625 477.953125 C 344.21875 478.078125 344.4375 478.148438 344.675781 478.164062 C 344.851562 478.191406 345.03125 478.191406 345.207031 478.164062 C 345.851562 478.140625 345.335938 477.832031 343.472656 477.082031 C 341.9375 476.464844 340.097656 475.652344 339.246094 475.257812 C 338.832031 475.019531 338.386719 474.851562 337.917969 474.753906 C 337.820312 474.726562 337.726562 474.734375 337.636719 474.777344 C 337.542969 474.820312 337.476562 474.886719 337.433594 474.976562 C 337.300781 475.28125 337.292969 475.59375 337.410156 475.621094 M 334.933594 483.148438 C 335.195312 483.273438 335.472656 483.351562 335.761719 483.386719 C 336.003906 483.386719 336.1875 483.386719 336.21875 483.296875 C 336.296875 483.117188 335.761719 482.753906 335.21875 482.496094 C 334.929688 482.351562 334.625 482.257812 334.308594 482.214844 C 334.105469 482.214844 333.976562 482.214844 333.941406 482.304688 C 333.863281 482.480469 334.246094 482.839844 334.921875 483.148438 M 348.191406 485.433594 C 347.789062 485.847656 347.523438 486.214844 347.640625 486.253906 C 347.878906 486.332031 348.125 486.386719 348.371094 486.410156 C 348.984375 486.476562 349.554688 486.375 349.632812 486.132812 C 349.683594 485.988281 349.90625 485.949219 350.210938 485.980469 C 351.015625 486.085938 351.722656 486.40625 352.335938 486.9375 C 352.550781 487.109375 352.792969 487.210938 353.066406 487.234375 C 353.320312 487.257812 353.566406 487.230469 353.808594 487.152344 C 354.21875 487.03125 354.632812 486.996094 355.054688 487.039062 C 356.058594 487.214844 356.992188 487.5625 357.867188 488.082031 C 358.175781 488.265625 358.5 488.417969 358.839844 488.535156 C 358.945312 488.535156 358.839844 488.425781 358.609375 488.183594 C 358.273438 487.894531 358.414062 487.796875 358.785156 487.835938 C 359.578125 487.96875 360.316406 488.25 361 488.679688 C 361.644531 489.054688 362.335938 489.3125 363.066406 489.460938 C 363.351562 489.527344 363.523438 489.5625 363.636719 489.578125 C 363.875 489.578125 363.609375 489.472656 362.886719 489.199219 C 361.617188 488.742188 361.785156 488.597656 364.058594 488.523438 C 367.253906 488.398438 366.734375 486.789062 363.847656 486.488281 C 363.648438 486.488281 363.4375 486.449219 363.21875 486.441406 L 363.148438 486.441406 C 362.269531 486.191406 361.4375 485.828125 360.652344 485.359375 C 359.707031 484.851562 359.195312 484.5 359.460938 484.527344 C 359.519531 484.539062 359.574219 484.550781 359.628906 484.570312 C 359.6875 484.585938 359.746094 484.597656 359.804688 484.605469 C 360.015625 484.628906 359.804688 484.433594 359.261719 484.113281 C 358.71875 483.792969 358.625 483.699219 359 483.734375 C 359.863281 483.886719 360.710938 484.085938 361.550781 484.332031 C 364.195312 485.050781 365.023438 485.167969 364.496094 485.304688 C 364.105469 485.40625 364.285156 485.648438 364.851562 485.851562 C 364.988281 485.90625 365.132812 485.941406 365.277344 485.957031 C 365.699219 486.003906 365.945312 485.800781 365.945312 485.421875 C 365.824219 484.84375 364.417969 484.21875 363.515625 484.121094 C 363.128906 484.082031 362.835938 484.121094 362.78125 484.339844 C 362.78125 484.382812 362.726562 484.394531 362.652344 484.390625 C 362.328125 484.304688 362.035156 484.152344 361.777344 483.933594 C 361.140625 483.550781 361.097656 483.292969 361.464844 483.273438 C 361.835938 483.253906 361.433594 482.945312 360.671875 482.597656 C 359.738281 482.164062 358.773438 481.820312 357.777344 481.566406 C 357.570312 481.566406 357.746094 481.675781 358.503906 482.023438 C 358.824219 482.140625 359.128906 482.292969 359.414062 482.480469 C 359.339844 482.480469 358.917969 482.324219 358.121094 482.023438 L 354.769531 480.886719 C 354.441406 480.777344 354.414062 480.738281 354.636719 480.761719 C 354.949219 480.792969 355.75 480.941406 356.917969 481.144531 C 358.453125 481.429688 359.316406 481.601562 359.523438 481.601562 C 359.734375 481.601562 359.003906 481.4375 357.207031 481.003906 C 355.480469 480.605469 354.15625 480.089844 354.207031 479.953125 C 354.320312 479.597656 349.691406 478.101562 348.046875 477.925781 C 347.929688 477.917969 347.8125 477.917969 347.691406 477.925781 C 346.324219 477.996094 347.015625 479.421875 348.394531 479.5625 L 348.601562 479.5625 C 348.777344 479.5625 348.933594 479.5625 349.058594 479.589844 C 349.601562 479.644531 350.082031 479.855469 350.496094 480.214844 C 351.640625 481.074219 351.480469 481.683594 350.554688 481.585938 C 350.1875 481.535156 349.832031 481.433594 349.496094 481.277344 C 349.140625 481.101562 348.769531 480.972656 348.382812 480.882812 C 348.21875 480.882812 348.226562 480.945312 348.40625 481.128906 C 348.859375 481.617188 349.222656 481.710938 351.371094 482.074219 C 353.523438 482.433594 353.746094 482.492188 352.960938 482.597656 C 352.417969 482.710938 352.621094 482.859375 353.777344 483.183594 C 354.828125 483.414062 355.777344 483.863281 356.625 484.523438 C 357.484375 485.175781 358.429688 485.671875 359.453125 486.011719 L 362.089844 486.875 C 362.660156 487.078125 363.460938 487.28125 363.945312 487.429688 C 364.292969 487.484375 363.109375 487.558594 361.363281 487.378906 L 361.210938 487.378906 L 360.839844 487.335938 C 358.75 487.117188 357.542969 486.847656 357.046875 486.519531 C 356.25 486.097656 355.410156 485.808594 354.527344 485.644531 C 353.527344 485.425781 352.582031 485.074219 351.683594 484.589844 C 350.714844 484.042969 349.675781 483.703125 348.574219 483.566406 C 348.339844 483.523438 348.117188 483.496094 347.933594 483.472656 C 346.417969 483.316406 346.144531 483.738281 347.683594 484.269531 C 348.257812 484.464844 348.597656 485.03125 348.175781 485.441406 M 358.292969 489.230469 C 358.632812 489.371094 358.984375 489.472656 359.347656 489.535156 C 359.546875 489.558594 359.566406 489.488281 359.414062 489.332031 C 358.753906 488.886719 358.050781 488.527344 357.300781 488.25 C 356.960938 488.113281 356.613281 488.011719 356.253906 487.949219 C 356.054688 487.949219 356.03125 487.992188 356.183594 488.148438 C 356.84375 488.597656 357.546875 488.957031 358.292969 489.230469 M 383.074219 489.984375 L 383.382812 490.019531 C 384.128906 490.101562 384.472656 490.058594 384.175781 489.886719 C 383.574219 489.652344 382.953125 489.488281 382.308594 489.40625 L 382.199219 489.40625 C 381.65625 489.34375 381.222656 489.40625 381.207031 489.515625 C 381.1875 489.625 382.003906 489.855469 383.074219 489.992188 M 374.585938 487.785156 C 374.699219 487.945312 374.851562 488.054688 375.042969 488.101562 C 375.144531 488.109375 375.226562 488.070312 375.285156 487.984375 C 375.566406 487.476562 374.488281 486.953125 373.109375 486.8125 C 372.738281 486.769531 372.367188 486.761719 371.992188 486.78125 C 370.660156 486.78125 370.75 486.894531 372.28125 487.054688 L 372.304688 487.054688 C 373.488281 487.199219 374.292969 487.441406 374.585938 487.785156 M 368.921875 488.386719 C 368.464844 488.792969 368.65625 489.035156 369.613281 489.183594 C 370.566406 489.382812 371.5 489.640625 372.417969 489.953125 C 372.480469 489.976562 372.546875 489.996094 372.613281 490.007812 C 373.042969 490.050781 370.976562 488.566406 369.875 487.929688 L 369.78125 487.90625 C 369.425781 487.949219 369.132812 488.109375 368.90625 488.386719 M 407.679688 488.007812 C 407.296875 487.789062 407.261719 487.734375 407.710938 487.777344 C 407.949219 487.804688 408.324219 487.863281 408.851562 487.933594 L 409.453125 488.007812 C 410.160156 488.136719 410.859375 488.105469 411.550781 487.921875 C 412.398438 487.730469 413.257812 487.664062 414.125 487.722656 C 415.066406 487.773438 415.535156 487.722656 415.0625 487.632812 C 413.992188 487.261719 415.726562 486.6875 417.699219 486.582031 C 418.453125 486.589844 419.1875 486.464844 419.894531 486.203125 C 420.054688 486.105469 419.953125 486.035156 419.652344 486.003906 C 419.109375 485.972656 418.5625 485.984375 418.019531 486.03125 C 416.648438 486.160156 415.589844 486.25 415.59375 486.359375 C 415.597656 486.46875 414.320312 486.574219 412.6875 486.609375 C 410.921875 486.695312 409.175781 486.921875 407.445312 487.289062 C 406.40625 487.527344 405.355469 487.636719 404.292969 487.625 L 404.242188 487.625 C 403.789062 487.566406 403.367188 487.65625 402.980469 487.898438 C 402.832031 488.070312 403.039062 488.191406 403.695312 488.257812 C 404.09375 488.300781 404.675781 488.324219 405.441406 488.328125 C 407.441406 488.371094 408.144531 488.273438 407.679688 488.011719 M 419.570312 488.40625 C 418.964844 488.140625 419.191406 488.054688 420.726562 488.0625 C 421.796875 488.046875 422.847656 487.894531 423.875 487.605469 C 424.828125 487.34375 425.789062 487.132812 426.765625 486.980469 C 427.746094 486.832031 428.699219 486.597656 429.632812 486.269531 C 430.332031 486.003906 430.582031 485.867188 430.40625 485.847656 C 430.121094 485.816406 428.761719 486.085938 426.378906 486.640625 C 424.382812 487.074219 422.371094 487.402344 420.34375 487.621094 C 418.714844 487.800781 416.152344 488.296875 414.621094 488.53125 C 412.863281 488.84375 412.476562 489.085938 413.121094 489.152344 C 414.105469 489.1875 415.085938 489.128906 416.058594 488.980469 C 417.109375 488.792969 418.167969 488.691406 419.234375 488.675781 C 419.945312 488.71875 420.054688 488.59375 419.570312 488.386719 M 475.171875 475.324219 C 477.308594 475.234375 477.316406 475.230469 478.050781 474.5625 C 478.394531 474.269531 478.464844 474.105469 478.382812 474.105469 L 478.363281 474.105469 L 475.722656 474.835938 C 474.351562 475.199219 473.835938 475.316406 474.121094 475.34375 C 474.261719 475.34375 474.617188 475.34375 475.171875 475.34375 M 466.953125 478.394531 C 467.296875 478.425781 468.542969 477.9375 470.519531 476.984375 C 471.085938 476.722656 471.433594 476.4375 471.195312 476.410156 C 471.148438 476.40625 471.101562 476.40625 471.058594 476.410156 C 470.058594 476.4375 467.574219 477.480469 466.949219 478.15625 C 466.839844 478.296875 466.847656 478.375 466.949219 478.386719 " fill-opacity="1" fill-rule="nonzero"/></g><g clip-path="url(#f6893d2d50)"><path fill="#6d0d19" d="M 531.542969 498.105469 C 447.433594 498.105469 363.320312 498.105469 279.207031 498.105469 C 279.207031 494.738281 278.453125 490.371094 279.207031 487.105469 C 279.914062 484.039062 283.363281 481.6875 285.644531 479.414062 C 302.558594 462.542969 319.550781 446.628906 338.207031 431.722656 C 343.445312 427.535156 349.8125 420.703125 356.257812 418.554688 C 359.292969 417.46875 361.578125 415.371094 363.164062 412.652344 C 368.371094 403.710938 365.847656 410.707031 363.957031 385.972656 C 363.332031 377.808594 358.828125 367.019531 355.160156 361.726562 C 351.097656 355.871094 342.703125 357.65625 333.304688 354.765625 C 329.296875 353.53125 325.339844 352.148438 321.226562 351.296875 C 319.199219 350.878906 313.589844 351.476562 309.417969 346.25 C 302.210938 337.230469 310.03125 328.125 311.183594 326.207031 C 314.847656 320.085938 309.667969 319.542969 310.738281 316.234375 C 311.710938 313.222656 313.371094 310.84375 316.765625 310.214844 C 317.25 310.125 318 310.433594 318.09375 309.59375 C 318.171875 308.921875 317.570312 308.609375 317.125 308.351562 C 313.507812 306.28125 313.425781 299.9375 315.40625 298.257812 C 316.824219 297.058594 317.96875 295.601562 319.285156 294.304688 C 322.101562 291.519531 321.851562 291.453125 318.382812 289.503906 C 313.648438 286.847656 312.472656 281.597656 315.402344 277.027344 C 316.945312 274.621094 319.136719 272.984375 321.277344 271.257812 C 335.503906 259.769531 333.648438 263.9375 339.679688 257.933594 C 341.691406 255.933594 335.957031 256.28125 335.945312 252.152344 C 336.542969 252.066406 336.882812 252.386719 337.273438 252.542969 C 339.449219 253.425781 342.054688 252.667969 342.886719 250.511719 C 344.835938 245.441406 343.308594 241.835938 342.488281 239.828125 C 341.925781 238.449219 342.359375 235.953125 343.316406 235.664062 C 349.050781 233.941406 353.753906 215.226562 363.972656 208.144531 C 364.765625 207.597656 371.636719 203.339844 370.636719 200.480469 C 370.097656 198.933594 370.757812 197.621094 370.75 196.210938 C 370.742188 195.234375 369.546875 193.632812 372.382812 189.648438 C 384.339844 172.855469 443.183594 168.792969 482.535156 204.984375 C 487.851562 209.875 495.324219 220.667969 500.777344 234.992188 C 515.460938 273.5625 509.582031 310.039062 512.433594 374.132812 C 512.746094 381.15625 513.953125 388.21875 513.953125 395.257812 C 513.953125 405.78125 516.535156 416.933594 517.78125 427.394531 C 519.015625 437.78125 519.640625 448.617188 522.738281 458.644531 C 527.117188 472.835938 529.355469 473.835938 530.089844 488.351562 C 530.253906 491.636719 531.546875 494.757812 531.542969 498.105469 Z M 531.542969 498.105469 " fill-opacity="1" fill-rule="nonzero"/></g><g clip-path="url(#4dd99d31b1)"><path fill="#dd1c24" d="M 404.996094 81.003906 C 274.558594 81.003906 168.804688 186.757812 168.804688 317.195312 C 168.804688 370.320312 186.332031 419.296875 215.933594 458.777344 L 404.996094 710.847656 L 594.058594 458.777344 C 623.65625 419.296875 641.1875 370.320312 641.1875 317.195312 C 641.1875 186.757812 535.429688 81.003906 404.996094 81.003906 Z M 404.996094 474.65625 C 318.039062 474.65625 247.535156 404.148438 247.535156 317.195312 C 247.535156 230.238281 318.039062 159.734375 404.996094 159.734375 C 491.953125 159.734375 562.457031 230.238281 562.457031 317.195312 C 562.457031 404.148438 491.953125 474.65625 404.996094 474.65625 Z M 404.996094 474.65625 " fill-opacity="1" fill-rule="nonzero"/></g></svg>