<svg xmlns="http://www.w3.org/2000/svg" xmlns:xlink="http://www.w3.org/1999/xlink" width="1080" zoomAndPan="magnify" viewBox="0 0 810 809.999993" height="1080" preserveAspectRatio="xMidYMid meet" version="1.0"><defs><clipPath id="5bd299b1d3"><path d="M 146 85 L 664.179688 85 L 664.179688 742.171875 L 146 742.171875 Z M 146 85 " clip-rule="nonzero"/></clipPath></defs><path fill="#6d0d19" d="M 655.714844 810 L 154.285156 810 C 69.214844 810 0 740.785156 0 655.714844 L 0 154.285156 C 0 69.214844 69.214844 0 154.285156 0 L 655.714844 0 C 740.785156 0 810 69.214844 810 154.285156 L 810 655.714844 C 810 740.785156 740.785156 810 655.714844 810 Z M 655.714844 810 " fill-opacity="1" fill-rule="nonzero"/><g clip-path="url(#5bd299b1d3)"><path fill="#df1e26" d="M 664.054688 742.070312 C 491.867188 742.070312 319.679688 742.070312 147.488281 742.070312 C 147.488281 735.175781 145.945312 726.238281 147.488281 719.546875 C 148.933594 713.273438 155.996094 708.457031 160.664062 703.800781 C 195.292969 669.261719 230.078125 636.6875 268.265625 606.171875 C 278.992188 597.597656 292.027344 583.617188 305.21875 579.21875 C 311.4375 576.992188 316.117188 572.695312 319.355469 567.136719 C 330.019531 548.832031 324.855469 563.152344 320.984375 512.515625 C 319.703125 495.800781 310.480469 473.714844 302.972656 462.886719 C 294.65625 450.890625 277.46875 454.550781 258.234375 448.628906 C 250.027344 446.105469 241.925781 443.273438 233.503906 441.53125 C 229.359375 440.671875 217.878906 441.898438 209.332031 431.199219 C 194.578125 412.734375 210.59375 394.097656 212.945312 390.164062 C 220.445312 377.636719 209.84375 376.523438 212.03125 369.753906 C 214.027344 363.585938 217.429688 358.71875 224.378906 357.429688 C 225.367188 357.25 226.898438 357.875 227.097656 356.15625 C 227.253906 354.785156 226.027344 354.140625 225.113281 353.617188 C 217.707031 349.378906 217.535156 336.390625 221.589844 332.957031 C 224.496094 330.496094 226.84375 327.515625 229.53125 324.855469 C 235.296875 319.15625 234.78125 319.019531 227.6875 315.035156 C 217.996094 309.59375 215.585938 298.847656 221.585938 289.488281 C 224.742188 284.5625 229.230469 281.214844 233.609375 277.675781 C 262.734375 254.164062 258.933594 262.699219 271.285156 250.40625 C 275.402344 246.3125 263.664062 247.023438 263.636719 238.570312 C 264.863281 238.394531 265.554688 239.046875 266.359375 239.371094 C 270.808594 241.175781 276.148438 239.625 277.847656 235.207031 C 281.839844 224.832031 278.714844 217.449219 277.03125 213.339844 C 275.878906 210.515625 276.765625 205.40625 278.726562 204.816406 C 290.46875 201.289062 300.09375 162.976562 321.015625 148.480469 C 322.636719 147.355469 336.707031 138.640625 334.660156 132.789062 C 333.550781 129.621094 334.90625 126.933594 334.886719 124.046875 C 334.871094 122.046875 332.429688 118.773438 338.234375 110.617188 C 362.710938 76.238281 483.167969 67.921875 563.726562 142.007812 C 574.613281 152.019531 589.90625 174.117188 601.074219 203.441406 C 631.132812 282.398438 619.09375 357.070312 624.933594 488.273438 C 625.574219 502.65625 628.042969 517.117188 628.042969 531.519531 C 628.042969 553.066406 633.328125 575.898438 635.878906 597.3125 C 638.410156 618.574219 639.691406 640.753906 646.027344 661.285156 C 654.996094 690.339844 659.574219 692.378906 661.078125 722.097656 C 661.417969 728.824219 664.0625 735.214844 664.054688 742.070312 Z M 664.054688 742.070312 " fill-opacity="1" fill-rule="nonzero"/></g></svg>